<svg width="57" height="56" viewBox="0 0 57 56" fill="none" xmlns="http://www.w3.org/2000/svg">
<g clip-path="url(#clip0_26694_55)">
<path d="M43.0015 32.2169C43.0015 22.0386 34.6715 13.7876 24.3957 13.7876C14.1199 13.7876 5.78992 22.0386 5.78992 32.2169C5.78992 42.3951 14.1199 50.6461 24.3957 50.6461C34.6715 50.6461 43.0015 42.3951 43.0015 32.2169Z" fill="#89C8FD"/>
<path d="M24.3957 13.7876C23.4408 13.7876 22.5023 13.8589 21.5863 13.9965C30.5287 15.3381 37.3823 22.9845 37.3823 32.2169C37.3823 41.4492 30.5287 49.0956 21.5863 50.4372C22.5023 50.5748 23.4408 50.6461 24.3957 50.6461C34.6715 50.6461 43.0015 42.3951 43.0015 32.2169C43.0015 22.0386 34.6715 13.7876 24.3957 13.7876Z" fill="#60B6FF"/>
<path d="M21.9772 20.9499C19.1111 22.7242 16.9613 25.5629 18.5736 28.757C20.1859 31.9506 23.7685 30.7086 27.0826 30.2651C30.3967 29.8217 27.8888 39.9354 29.8592 42.4194C31.8296 44.9034 37.3826 39.9354 36.8455 36.7413C36.0497 32.0126 35.7708 30.3536 42.2195 26.9826L42.2368 26.9762C40.0631 19.7049 33.4834 14.3096 25.5607 13.8247L25.5599 13.8525C25.5599 13.8525 24.8432 19.1755 21.9772 20.9499Z" fill="#BAEB6C"/>
<path d="M36.0528 17.854C36.0541 17.8549 36.0554 17.8561 36.0566 17.857C36.0554 17.8561 36.0541 17.8553 36.0528 17.854Z" fill="#BAEB6C"/>
<path d="M38.3281 20.0039C38.3281 20.0043 38.3285 20.0048 38.3289 20.0048C38.3285 20.0043 38.3285 20.0043 38.3281 20.0039Z" fill="#BAEB6C"/>
<path d="M12.0354 40.5563C11.1747 39.2596 13.5581 36.2095 14.0953 33.9028C14.6329 31.5961 11.4083 31.7734 10.4231 30.9749C9.4379 30.1764 8.09418 26.7166 7.10899 25.918L6.95156 25.7954C6.20077 27.7949 5.78992 29.9585 5.78992 32.2169C5.78992 38.3086 8.77404 43.709 13.373 47.0641L13.3787 46.6779C13.3787 46.6779 14.0953 43.6616 12.0354 40.5563Z" fill="#BAEB6C"/>
<path d="M36.8455 36.7414C36.8416 36.7183 36.8377 36.6957 36.8338 36.6726C36.4779 38.0932 35.9555 39.4489 35.2881 40.7178C36.3464 39.4839 37.0535 37.9796 36.8455 36.7414Z" fill="#BAEB6C"/>
<path d="M25.5608 13.8247L25.56 13.8525C25.56 13.8525 25.5003 14.2968 25.3463 14.9706C31.8707 17.4102 36.6475 23.3771 37.3049 30.524C38.127 29.4132 39.6307 28.3357 42.2196 26.9826L42.2369 26.9762C40.0632 19.7049 33.4834 14.3096 25.5608 13.8247Z" fill="#96D629"/>
<path d="M24.3702 55.9999C23.0525 55.9999 21.7252 55.8931 20.3988 55.6765C14.0581 54.6421 8.50465 51.2306 4.76153 46.0703C1.0184 40.91 -0.466308 34.6184 0.581162 28.355C0.656846 27.9012 1.09192 27.5945 1.54992 27.6692C2.00922 27.744 2.32017 28.1725 2.24405 28.6263C1.27054 34.4509 2.65102 40.3016 6.13206 45.1005C9.6131 49.8993 14.7769 53.0716 20.6738 54.0337C32.8469 56.0204 44.3837 47.8528 46.3943 35.8288C47.3679 30.0041 45.9874 24.1534 42.5063 19.3546C39.0257 14.5558 33.8615 11.3835 27.965 10.4213C27.5057 10.3465 27.1948 9.91802 27.2705 9.46428C27.3466 9.01055 27.7812 8.70379 28.2392 8.77855C34.5802 9.81292 40.1337 13.2245 43.8764 18.3848C47.6196 23.545 49.1043 29.8367 48.0572 36.1001C47.0102 42.3635 43.5564 47.8494 38.3325 51.5467C34.201 54.4708 29.3537 55.9999 24.3702 55.9999Z" fill="#09A66D"/>
<path d="M19.2535 20.1126C10.2562 18.6044 4.67456 7.41313 4.67456 7.41313C4.67456 7.41313 13.681 -1.33303 22.6783 0.174724C31.6757 1.68248 37.2573 12.8738 37.2573 12.8738C37.2573 12.8738 28.2509 21.6203 19.2535 20.1126Z" fill="#49CB5C"/>
<path d="M22.6783 0.174722C20.9601 -0.113242 19.2423 -0.0265113 17.5863 0.301187C26.2078 2.21354 31.526 12.8738 31.526 12.8738C31.526 12.8738 25.6305 18.5984 18.6139 19.9861C18.8254 20.0331 19.0381 20.0763 19.2535 20.1126C28.2509 21.6203 37.2573 12.8738 37.2573 12.8738C37.2573 12.8738 31.6757 1.68247 22.6783 0.174722Z" fill="#07B128"/>
<path d="M36.7487 11.9445L27.9498 10.4781L19.731 0.0234375C19.0753 0.0614624 18.4257 0.144348 17.7848 0.263123L25.4933 10.0684L18.8587 8.96271L13.1975 1.72687C12.6664 1.96356 12.15 2.21478 11.6522 2.4754L16.4082 8.55426L5.43746 6.72565C4.94486 7.15076 4.67456 7.41309 4.67456 7.41309C4.67456 7.41309 4.85534 7.77496 5.20219 8.37524L16.1133 10.1936L10.062 14.816C10.4516 15.2125 10.8603 15.6042 11.2876 15.9845L18.3751 10.5709L25.3991 11.7415L15.8464 19.0427C16.4394 19.3162 17.0522 19.5529 17.684 19.7434L27.6609 12.1188L36.4654 13.5859C36.9757 13.1463 37.2573 12.8737 37.2573 12.8737C37.2573 12.8737 37.083 12.5251 36.7487 11.9445Z" fill="#09A66D"/>
<path d="M43.3767 9.24951C45.7904 3.6073 54.1533 1.70776 54.1533 1.70776C54.1533 1.70776 58.6031 8.95599 56.1894 14.5982C53.7762 20.2404 45.4129 22.14 45.4129 22.14C45.4129 22.14 40.9631 14.8917 43.3767 9.24951Z" fill="#49CB5C"/>
<path d="M54.1534 1.70776C54.1534 1.70776 52.2518 2.14014 50.0003 3.20398C51.1554 5.62134 52.9866 10.5274 51.245 14.5982C49.9826 17.5496 47.0918 19.4769 44.6219 20.6437C45.0678 21.5768 45.4134 22.14 45.4134 22.14C45.4134 22.14 53.7763 20.2404 56.19 14.5982C58.6032 8.95599 54.1534 1.70776 54.1534 1.70776Z" fill="#07B128"/>
<path d="M56.8733 9.94464L50.4423 12.6098L54.6646 2.63745C54.3623 2.04785 54.1534 1.70776 54.1534 1.70776C54.1534 1.70776 53.7556 1.79834 53.1081 1.99829L48.7444 12.3043L46.0384 5.72687C45.5799 6.12634 45.1474 6.56042 44.7552 7.03082L47.8215 14.4841L44.9412 21.2867C45.2223 21.8289 45.413 22.14 45.413 22.14C45.413 22.14 45.8455 22.0417 46.5409 21.8238L49.5151 14.7999L56.8707 11.7519C56.9196 11.1482 56.917 10.5428 56.8733 9.94464Z" fill="#09A66D"/>
</g>
<defs>
<clipPath id="clip0_26694_55">
<rect width="56.6862" height="56" fill="white" transform="translate(0.25415)"/>
</clipPath>
</defs>
</svg>
