<svg width="81" height="81" viewBox="0 0 81 81" fill="none" xmlns="http://www.w3.org/2000/svg">
<circle cx="40.4697" cy="40.8934" r="40" fill="white"/>
<g clip-path="url(#clip0_32_247)">
<path d="M35.1557 48.7151H45.5469C45.8705 48.7151 46.1328 48.4527 46.1328 48.1291C46.1328 47.8055 45.8705 47.5432 45.5469 47.5432H35.1557C34.8321 47.5432 34.5697 47.8055 34.5697 48.1291C34.5697 48.4527 34.8321 48.7151 35.1557 48.7151ZM36.9917 35.2727H43.9481C44.4787 35.2727 44.9386 34.9316 45.0926 34.424L46.5526 29.6135C46.6638 29.2473 46.5968 28.861 46.3688 28.5537C46.1409 28.2463 45.7908 28.0701 45.4081 28.0701H44.8884L43.8264 25.4152C43.5823 24.804 42.9993 24.4091 42.341 24.4091H38.5988C37.9406 24.4091 37.3576 24.804 37.1134 25.4149L36.0514 28.07H35.5317C35.149 28.07 34.7989 28.2462 34.5709 28.5537C34.3429 28.8611 34.276 29.2473 34.3871 29.6135L35.8472 34.424C36.0012 34.9316 36.4612 35.2727 36.9917 35.2727ZM35.5122 29.2516C35.5299 29.2277 38.6993 29.2496 38.7219 29.2419C39.0455 29.2419 39.3079 28.9795 39.3079 28.6559C39.3079 28.3323 39.0455 28.07 38.7219 28.07H37.3135L38.2015 25.85C38.2668 25.6866 38.4227 25.5809 38.5988 25.5809H42.341C42.5171 25.5809 42.673 25.6866 42.7383 25.8502L43.6263 28.07H41.4562C41.1326 28.07 40.8703 28.3323 40.8703 28.6559C40.8703 28.9795 41.1326 29.2419 41.4562 29.2419C41.4759 29.2419 45.4126 29.2314 45.4276 29.2516C45.445 29.2752 43.9712 34.059 43.9712 34.0837C43.9712 34.1357 36.9716 34.0939 36.9685 34.0837C36.9611 34.0591 35.4948 29.2751 35.5122 29.2516ZM35.1557 54.5604C34.8321 54.5604 34.5697 54.8227 34.5697 55.1463C34.5697 55.4699 34.8321 55.7323 35.1557 55.7323H45.5469C45.8705 55.7323 46.1328 55.4699 46.1328 55.1463C46.1328 54.8227 45.8705 54.5604 45.5469 54.5604H35.1557ZM50.8203 52.8026C50.8203 52.479 50.558 52.2166 50.2344 52.2166H35.1557C34.8321 52.2166 34.5697 52.479 34.5697 52.8026C34.5697 53.1262 34.8321 53.3885 35.1557 53.3885H50.2344C50.558 53.3885 50.8203 53.1262 50.8203 52.8026ZM53.75 46.5423C54.0737 46.5423 54.3359 46.28 54.3359 45.9564V23.8231C54.3359 22.2077 53.0217 20.8934 51.4062 20.8934H29.5336C27.9181 20.8934 26.6039 22.2077 26.6039 23.8231V57.9637C26.6039 59.5792 27.9181 60.8934 29.5336 60.8934H51.4063C53.0218 60.8934 54.336 59.5792 54.336 57.9637V48.6908C54.336 48.3672 54.0737 48.1048 53.7501 48.1048C53.4264 48.1048 53.1641 48.3672 53.1641 48.6908V57.9637C53.1641 58.933 52.3755 59.7216 51.4063 59.7216H29.5336C28.5643 59.7216 27.7758 58.933 27.7758 57.9637V23.8231C27.7758 22.8538 28.5643 22.0653 29.5336 22.0653H51.4063C52.3755 22.0653 53.1641 22.8538 53.1641 23.8231V45.9564C53.164 46.28 53.4264 46.5423 53.75 46.5423ZM32.8393 49.1644C32.5508 49.168 32.2482 49.1709 31.9708 49.1723C32.1679 48.9048 32.4171 48.5597 32.7278 48.1157C33.0003 47.7264 33.1931 47.374 33.2433 47.0078C33.2515 46.9478 33.2673 46.8401 33.2673 46.7828C33.2673 45.9098 32.5571 45.1995 31.684 45.1995C30.9292 45.1995 30.2758 45.7366 30.1304 46.4766C30.0681 46.7941 30.2749 47.1021 30.5925 47.1644C30.9101 47.2268 31.218 47.02 31.2804 46.7024C31.318 46.5105 31.4878 46.3714 31.684 46.3714C31.9011 46.3714 32.0794 46.5403 32.0944 46.7536C32.1093 46.9641 32.0019 47.1092 31.7677 47.4437C31.1521 48.3234 30.7848 48.8042 30.5876 49.0625C30.2431 49.5135 30.0785 50.1013 30.6751 50.3002C30.7521 50.3258 32.2988 50.3433 32.854 50.3362C33.1776 50.3322 33.4365 50.0666 33.4325 49.743C33.4284 49.4194 33.1601 49.1582 32.8393 49.1644ZM50.2344 45.1994H35.1557C34.8321 45.1994 34.5697 45.4618 34.5697 45.7854C34.5697 46.109 34.8321 46.3713 35.1557 46.3713H50.2344C50.558 46.3713 50.8203 46.109 50.8203 45.7854C50.8203 45.4618 50.558 45.1994 50.2344 45.1994ZM31.776 52.2166C31.0211 52.2166 30.3678 52.7537 30.2224 53.4937C30.1601 53.8112 30.3669 54.1192 30.6844 54.1816C31.0018 54.2438 31.3099 54.0371 31.3723 53.7195C31.41 53.5277 31.5797 53.3885 31.776 53.3885C32.0029 53.3885 32.1874 53.573 32.1874 53.7999C32.1874 54.0268 32.0029 54.2113 31.776 54.2113C31.4524 54.2113 31.1901 54.4737 31.1901 54.7973C31.1901 55.1209 31.4524 55.3832 31.776 55.3832C32.0029 55.3832 32.1874 55.5677 32.1874 55.7946C32.1874 56.0215 32.0029 56.206 31.776 56.206C31.5719 56.206 31.3967 56.0541 31.3686 55.8524C31.3659 55.8335 31.3646 55.8141 31.3646 55.7946C31.3646 55.471 31.1022 55.2087 30.7786 55.2087C30.4551 55.2087 30.1927 55.471 30.1927 55.7946C30.1927 56.6552 30.9069 57.3779 31.776 57.3779C32.649 57.3779 33.3593 56.6677 33.3593 55.7946C33.3593 55.4168 33.2258 55.0698 33.0041 54.7973C33.2258 54.5248 33.3593 54.1777 33.3593 53.7999C33.3593 52.9269 32.649 52.2166 31.776 52.2166ZM31.776 43.2823C32.0996 43.2823 32.3619 43.02 32.3619 42.6964V38.7987C32.3619 38.4752 32.0996 38.2128 31.776 38.2128H30.9429C30.6193 38.2128 30.3569 38.4752 30.3569 38.7987C30.3569 39.1223 30.6193 39.3847 30.9429 39.3847H31.1901V42.6964C31.1901 43.02 31.4524 43.2823 31.776 43.2823ZM35.1557 41.7284H45.5469C45.8705 41.7284 46.1328 41.4661 46.1328 41.1425C46.1328 40.8189 45.8705 40.5566 45.5469 40.5566H35.1557C34.8321 40.5566 34.5697 40.8189 34.5697 41.1425C34.5697 41.4661 34.8321 41.7284 35.1557 41.7284ZM50.2344 38.2128H35.1557C34.8321 38.2128 34.5697 38.4752 34.5697 38.7987C34.5697 39.1223 34.8321 39.3847 35.1557 39.3847H50.2344C50.558 39.3847 50.8203 39.1223 50.8203 38.7987C50.8203 38.4752 50.558 38.2128 50.2344 38.2128Z" fill="#09A66D"/>
</g>
<defs>
<clipPath id="clip0_32_247">
<rect width="40" height="40" fill="white" transform="translate(20.4697 20.8934)"/>
</clipPath>
</defs>
</svg>
