<svg width="42" height="40" viewBox="0 0 42 40" fill="none" xmlns="http://www.w3.org/2000/svg">
<ellipse cx="21.0566" cy="20" rx="20.2451" ry="20" fill="#F3FBF8"/>
<path fill-rule="evenodd" clip-rule="evenodd" d="M16.4228 27.8203C16.85 27.8203 17.1972 28.1633 17.1972 28.5853C17.1972 29.0073 16.85 29.3493 16.4228 29.3493C15.9957 29.3493 15.6495 29.0073 15.6495 28.5853C15.6495 28.1633 15.9957 27.8203 16.4228 27.8203Z" stroke="#222222" stroke-width="1.5" stroke-linecap="round" stroke-linejoin="round"/>
<path fill-rule="evenodd" clip-rule="evenodd" d="M27.8131 27.8203C28.2403 27.8203 28.5875 28.1633 28.5875 28.5853C28.5875 29.0073 28.2403 29.3493 27.8131 29.3493C27.3859 29.3493 27.0387 29.0073 27.0387 28.5853C27.0387 28.1633 27.3859 27.8203 27.8131 27.8203Z" stroke="#222222" stroke-width="1.5" stroke-linecap="round" stroke-linejoin="round"/>
<path d="M11.6932 11.25L13.7987 11.61L14.7735 23.083C14.8524 24.018 15.643 24.736 16.5925 24.736H27.6382C28.5452 24.736 29.3145 24.078 29.4451 23.19L30.4057 16.632C30.5241 15.823 29.8894 15.099 29.0624 15.099H14.1368" stroke="#222222" stroke-width="1.5" stroke-linecap="round" stroke-linejoin="round"/>
<path d="M23.2081 18.7969H26.015" stroke="#222222" stroke-width="1.5" stroke-linecap="round" stroke-linejoin="round"/>
</svg>
